<svg id="SvgjsSvg1011" width="288" height="288" xmlns="http://www.w3.org/2000/svg" version="1.1" xmlns:xlink="http://www.w3.org/1999/xlink" xmlns:svgjs="http://svgjs.com/svgjs"><defs id="SvgjsDefs1012"></defs><g id="SvgjsG1013"><svg xmlns="http://www.w3.org/2000/svg" width="288" height="288" enable-background="new 0 0 132.608 132.609" viewBox="0 0 132.608 132.609"><path d="M126.972 0H5.636C4.669 0 3.884.786 3.884 1.752v9.084c0 .967.786 1.752 1.752 1.752h121.335c.966 0 1.753-.785 1.753-1.752V1.752C128.725.786 127.944 0 126.972 0zM125.22 9.084H7.388v-5.58H125.22V9.084zM121.497 19.159H11.113c-.967 0-1.752.784-1.752 1.752 0 .967.785 1.752 1.752 1.752h110.384c.968 0 1.752-.785 1.752-1.752C123.249 19.943 122.465 19.159 121.497 19.159zM110.546 30.986c.969 0 1.752-.785 1.752-1.752 0-.969-.783-1.752-1.752-1.752H22.064c-.966 0-1.752.783-1.752 1.752 0 .967.786 1.752 1.752 1.752H110.546zM118.649 34.928H13.959c-.967 0-1.752.784-1.752 1.752 0 .967.786 1.752 1.752 1.752h104.69c.965 0 1.752-.786 1.752-1.752C120.401 35.712 119.621 34.928 118.649 34.928zM26.006 41.499c-.967 0-1.752.784-1.752 1.752v87.606c0 .968.785 1.752 1.752 1.752s1.752-.784 1.752-1.752V43.251C27.759 42.283 26.973 41.499 26.006 41.499zM37.522 41.499c-.967 0-1.752.784-1.752 1.752v87.606c0 .968.785 1.752 1.752 1.752s1.752-.784 1.752-1.752V43.251C39.274 42.283 38.489 41.499 37.522 41.499zM49.034 41.499c-.968 0-1.752.784-1.752 1.752v87.606c0 .968.784 1.752 1.752 1.752.967 0 1.752-.784 1.752-1.752V43.251C50.786 42.283 50.004 41.499 49.034 41.499zM60.545 41.499c-.967 0-1.752.784-1.752 1.752v87.606c0 .968.786 1.752 1.752 1.752.966 0 1.752-.784 1.752-1.752V43.251C62.297 42.283 61.515 41.499 60.545 41.499zM72.067 41.499c-.965 0-1.752.784-1.752 1.752v87.606c0 .968.787 1.752 1.752 1.752s1.752-.784 1.752-1.752V43.251C73.819 42.283 73.032 41.499 72.067 41.499zM83.579 41.499c-.969 0-1.752.784-1.752 1.752v87.606c0 .968.783 1.752 1.752 1.752.965 0 1.752-.784 1.752-1.752V43.251C85.331 42.283 84.544 41.499 83.579 41.499zM95.091 41.499c-.968 0-1.752.784-1.752 1.752v87.606c0 .968.784 1.752 1.752 1.752.966 0 1.753-.784 1.753-1.752V43.251C96.844 42.283 96.057 41.499 95.091 41.499zM106.604 41.499c-.965 0-1.752.784-1.752 1.752v87.606c0 .968.787 1.752 1.752 1.752.969 0 1.752-.784 1.752-1.752V43.251C108.355 42.283 107.572 41.499 106.604 41.499z" fill="#00461b" class="color000 svgShape"></path></svg></g></svg>